<svg xmlns="http://www.w3.org/2000/svg" viewBox="0 0 1024 1024"><title>에셋 생성기</title><rect x="100" y="100" width="824" height="824" rx="185" fill="#2453d6"/><g transform="translate(212 212) scale(1.17)"><mask id="s-l-m" maskUnits="userSpaceOnUse" x="-100" y="-100" width="712" height="712"><rect x="-100" y="-100" width="712" height="712" fill="#fff"/><rect x="176" y="92" width="160" height="300" rx="40" transform="rotate(24 256 440)" fill="#000" stroke="#000" stroke-width="52"/><rect x="176" y="70" width="160" height="322" rx="40" fill="#000" stroke="#000" stroke-width="22"/></mask><g mask="url(#s-l-m)"><rect x="176" y="92" width="160" height="300" rx="40" transform="rotate(-24 256 440)" fill="none" stroke="#ffffff" stroke-width="30"/></g><mask id="s-r-m" maskUnits="userSpaceOnUse" x="-100" y="-100" width="712" height="712"><rect x="-100" y="-100" width="712" height="712" fill="#fff"/><rect x="176" y="70" width="160" height="322" rx="40" fill="#000" stroke="#000" stroke-width="22"/></mask><g mask="url(#s-r-m)"><clipPath id="s-r-c"><rect x="176" y="92" width="160" height="300" rx="40" transform="rotate(24 256 440)"/></clipPath>
      <g clip-path="url(#s-r-c)"><rect x="-24" y="-40" width="24" height="640" transform="rotate(30 256 241)" fill="#ffffff"/><rect x="22" y="-40" width="24" height="640" transform="rotate(30 256 241)" fill="#ffffff"/><rect x="68" y="-40" width="24" height="640" transform="rotate(30 256 241)" fill="#ffffff"/><rect x="114" y="-40" width="24" height="640" transform="rotate(30 256 241)" fill="#ffffff"/><rect x="160" y="-40" width="24" height="640" transform="rotate(30 256 241)" fill="#ffffff"/><rect x="206" y="-40" width="24" height="640" transform="rotate(30 256 241)" fill="#ffffff"/><rect x="252" y="-40" width="24" height="640" transform="rotate(30 256 241)" fill="#ffffff"/><rect x="298" y="-40" width="24" height="640" transform="rotate(30 256 241)" fill="#ffffff"/><rect x="344" y="-40" width="24" height="640" transform="rotate(30 256 241)" fill="#ffffff"/><rect x="390" y="-40" width="24" height="640" transform="rotate(30 256 241)" fill="#ffffff"/><rect x="436" y="-40" width="24" height="640" transform="rotate(30 256 241)" fill="#ffffff"/><rect x="482" y="-40" width="24" height="640" transform="rotate(30 256 241)" fill="#ffffff"/><rect x="528" y="-40" width="24" height="640" transform="rotate(30 256 241)" fill="#ffffff"/><rect x="574" y="-40" width="24" height="640" transform="rotate(30 256 241)" fill="#ffffff"/></g><rect x="176" y="92" width="160" height="300" rx="40" transform="rotate(24 256 440)" fill="none" stroke="#ffffff" stroke-width="30"/></g><rect x="176" y="70" width="160" height="322" rx="40" fill="#ffffff"/></g></svg>
